<?xml version="1.0" encoding="UTF-8"?>
<!DOCTYPE svg PUBLIC "-//W3C//DTD SVG 1.1//EN" "http://www.w3.org/Graphics/SVG/1.1/DTD/svg11.dtd">
<!-- Creator: CorelDRAW 2020 (64-Bit Evaluation Version) -->
<svg xmlns="http://www.w3.org/2000/svg" xml:space="preserve" width="6.0134mm" height="69.6522mm" version="1.1" style="shape-rendering:geometricPrecision; text-rendering:geometricPrecision; image-rendering:optimizeQuality; fill-rule:evenodd; clip-rule:evenodd"
viewBox="0 0 4.8 55.6"
 xmlns:xlink="http://www.w3.org/1999/xlink"
 xmlns:xodm="http://www.corel.com/coreldraw/odm/2003">
 <defs>
  <style type="text/css">
   <![CDATA[
    .fil0 {fill:#5F1D31;fill-rule:nonzero}
   ]]>
  </style>
 </defs>
 <g id="Layer_x0020_1">
  <metadata id="CorelCorpID_0Corel-Layer"/>
  <path class="fil0" d="M1.36 27.18c-0.34,-0.15 -0.01,-1.19 0.06,-1.44 0.23,-0.87 0.83,0.31 1.14,1.03 -0.25,0.4 -0.6,0.67 -1.2,0.41zm2.07 -4.04c-0.08,0.91 -0.07,1.68 -0.36,2.5 -0.32,-0.57 -0.75,-1.03 -1.3,-1.32 -0.1,-0.05 -0.25,-0.06 -0.34,0.04 -0.55,0.61 -0.97,1.89 -0.79,2.81 0.18,0.94 1.23,0.96 1.83,0.68 0.13,-0.06 0.25,-0.16 0.36,-0.29 0.28,1.01 0.34,2.14 0.41,3.18 0.29,4.39 0.26,9.09 -0.95,13.29 -0.49,1.71 -1.2,3.46 -1.87,5.08 -0.54,1.3 -0.14,2.87 0.25,4.15 0.46,1.52 1.6,2.63 2.99,2.3 1.19,-0.29 1.32,-2.39 1,-3.5 -0.29,-1.02 -1.06,-2.5 -2.1,-2.22 -1.36,0.37 -0.51,2.34 0.06,3.05 0.13,0.17 0.37,-0.1 0.25,-0.27 -0.22,-0.27 -0.37,-0.59 -0.48,-0.95 0.21,-0.39 0.43,-0.79 0.64,-1.18 0.23,0.14 0.41,0.35 0.55,0.61 0.32,0.49 0.54,1.17 0.61,1.78 0.11,1.06 -0.44,2.03 -1.35,1.84 -0.91,-0.19 -1.3,-1.15 -1.58,-2.09 -0.24,-0.79 -0.37,-1.6 -0.33,-2.45 0.04,-0.85 0.64,-2.08 0.96,-2.85 0.6,-1.47 1.13,-2.87 1.54,-4.44 0.9,-3.42 0.76,-7.16 0.74,-10.7 -0.01,-1.61 -0.05,-3.94 -0.7,-5.7 0.26,-0.64 0.44,-1.36 0.52,-1.83 0.35,-1.96 0.17,-4.06 -0.13,-6.01 -0.31,-1.99 -0.98,-3.77 -1.51,-5.66 -0.6,-2.15 -1.02,-4.39 -1.28,-6.64 -0.21,-1.79 -0.61,-5.06 1.4,-5.46 1.38,-0.27 1.62,1.93 1.4,3.06 -0.1,0.51 -0.86,2.37 -1.52,0.42 -0.08,-0.32 -0.15,-0.64 -0.2,-0.97 0.15,-0.72 0.29,-0.84 0.41,-0.37 0.17,0.4 0.73,0.16 0.55,-0.25 -0.26,-0.62 -0.65,-1.26 -1.24,-0.71 -0.64,0.61 -0.34,2.24 0,2.96 0.32,0.68 1.08,1.21 1.71,0.73 0.78,-0.6 0.97,-1.77 1,-2.81 0.07,-2.67 -2.46,-3.95 -3.93,-1.97 -0.64,0.87 -0.65,2.29 -0.65,3.37 -0.01,2.12 0.42,4.24 0.83,6.29 0.83,4.09 3,8.15 2.6,12.51z"/>
 </g>
</svg>
